solid stl file generated from AC3D
 facet normal 0.000000 -1.000000 0.000000
  outer loop
   vertex 0.165769 -0.495030 0.022972
   vertex 0.497307 -0.495030 0.032498
   vertex 0.165769 -0.495030 0.032498
  endloop
 endfacet
 facet normal 0.000000 -1.000000 0.000000
  outer loop
   vertex 0.497307 -0.495030 0.032498
   vertex 0.165769 -0.495030 0.022972
   vertex 0.497307 -0.495030 0.022972
  endloop
 endfacet
 facet normal 0.000000 1.000000 0.000000
  outer loop
   vertex 0.497307 0.495030 0.022972
   vertex 0.165769 0.495030 0.032498
   vertex 0.497307 0.495030 0.032498
  endloop
 endfacet
 facet normal 0.000000 1.000000 0.000000
  outer loop
   vertex 0.165769 0.495030 0.032498
   vertex 0.497307 0.495030 0.022972
   vertex 0.165769 0.495030 0.022972
  endloop
 endfacet
 facet normal 0.000000 -1.000000 0.000000
  outer loop
   vertex 0.165769 -0.495030 0.013446
   vertex 0.497307 -0.495030 0.022972
   vertex 0.165769 -0.495030 0.022972
  endloop
 endfacet
 facet normal 0.000000 -1.000000 0.000000
  outer loop
   vertex 0.497307 -0.495030 0.022972
   vertex 0.165769 -0.495030 0.013446
   vertex 0.497307 -0.495030 0.013446
  endloop
 endfacet
 facet normal 0.000000 1.000000 0.000000
  outer loop
   vertex 0.497307 0.495030 0.013446
   vertex 0.165769 0.495030 0.022972
   vertex 0.497307 0.495030 0.022972
  endloop
 endfacet
 facet normal 0.000000 1.000000 0.000000
  outer loop
   vertex 0.165769 0.495030 0.022972
   vertex 0.497307 0.495030 0.013446
   vertex 0.165769 0.495030 0.013446
  endloop
 endfacet
 facet normal 0.000000 -1.000000 0.000000
  outer loop
   vertex 0.165769 -0.495030 0.003920
   vertex 0.497307 -0.495030 0.013446
   vertex 0.165769 -0.495030 0.013446
  endloop
 endfacet
 facet normal 0.000000 -1.000000 0.000000
  outer loop
   vertex 0.497307 -0.495030 0.013446
   vertex 0.165769 -0.495030 0.003920
   vertex 0.497307 -0.495030 0.003920
  endloop
 endfacet
 facet normal 0.000000 1.000000 0.000000
  outer loop
   vertex 0.497307 0.495030 0.003920
   vertex 0.165769 0.495030 0.013446
   vertex 0.497307 0.495030 0.013446
  endloop
 endfacet
 facet normal 0.000000 1.000000 0.000000
  outer loop
   vertex 0.165769 0.495030 0.013446
   vertex 0.497307 0.495030 0.003920
   vertex 0.165769 0.495030 0.003920
  endloop
 endfacet
 facet normal 0.000000 -1.000000 0.000000
  outer loop
   vertex -0.165769 -0.495030 0.022972
   vertex 0.165769 -0.495030 0.032498
   vertex -0.165769 -0.495030 0.032498
  endloop
 endfacet
 facet normal 0.000000 -1.000000 0.000000
  outer loop
   vertex 0.165769 -0.495030 0.032498
   vertex -0.165769 -0.495030 0.022972
   vertex 0.165769 -0.495030 0.022972
  endloop
 endfacet
 facet normal 0.000000 1.000000 0.000000
  outer loop
   vertex 0.165769 0.495030 0.022972
   vertex -0.165769 0.495030 0.032498
   vertex 0.165769 0.495030 0.032498
  endloop
 endfacet
 facet normal 0.000000 1.000000 0.000000
  outer loop
   vertex -0.165769 0.495030 0.032498
   vertex 0.165769 0.495030 0.022972
   vertex -0.165769 0.495030 0.022972
  endloop
 endfacet
 facet normal 0.000000 -1.000000 0.000000
  outer loop
   vertex -0.165769 -0.495030 0.013446
   vertex 0.165769 -0.495030 0.022972
   vertex -0.165769 -0.495030 0.022972
  endloop
 endfacet
 facet normal 0.000000 -1.000000 0.000000
  outer loop
   vertex 0.165769 -0.495030 0.022972
   vertex -0.165769 -0.495030 0.013446
   vertex 0.165769 -0.495030 0.013446
  endloop
 endfacet
 facet normal 0.000000 1.000000 0.000000
  outer loop
   vertex 0.165769 0.495030 0.013446
   vertex -0.165769 0.495030 0.022972
   vertex 0.165769 0.495030 0.022972
  endloop
 endfacet
 facet normal 0.000000 1.000000 0.000000
  outer loop
   vertex -0.165769 0.495030 0.022972
   vertex 0.165769 0.495030 0.013446
   vertex -0.165769 0.495030 0.013446
  endloop
 endfacet
 facet normal 0.000000 -1.000000 0.000000
  outer loop
   vertex -0.165769 -0.495030 0.003920
   vertex 0.165769 -0.495030 0.013446
   vertex -0.165769 -0.495030 0.013446
  endloop
 endfacet
 facet normal 0.000000 -1.000000 0.000000
  outer loop
   vertex 0.165769 -0.495030 0.013446
   vertex -0.165769 -0.495030 0.003920
   vertex 0.165769 -0.495030 0.003920
  endloop
 endfacet
 facet normal 0.000000 1.000000 0.000000
  outer loop
   vertex 0.165769 0.495030 0.003920
   vertex -0.165769 0.495030 0.013446
   vertex 0.165769 0.495030 0.013446
  endloop
 endfacet
 facet normal 0.000000 1.000000 0.000000
  outer loop
   vertex -0.165769 0.495030 0.013446
   vertex 0.165769 0.495030 0.003920
   vertex -0.165769 0.495030 0.003920
  endloop
 endfacet
 facet normal 0.000000 -1.000000 0.000000
  outer loop
   vertex -0.497307 -0.495030 0.022972
   vertex -0.165769 -0.495030 0.032498
   vertex -0.497307 -0.495030 0.032498
  endloop
 endfacet
 facet normal 0.000000 -1.000000 0.000000
  outer loop
   vertex -0.165769 -0.495030 0.032498
   vertex -0.497307 -0.495030 0.022972
   vertex -0.165769 -0.495030 0.022972
  endloop
 endfacet
 facet normal 0.000000 1.000000 0.000000
  outer loop
   vertex -0.165769 0.495030 0.022972
   vertex -0.497307 0.495030 0.032498
   vertex -0.165769 0.495030 0.032498
  endloop
 endfacet
 facet normal 0.000000 1.000000 0.000000
  outer loop
   vertex -0.497307 0.495030 0.032498
   vertex -0.165769 0.495030 0.022972
   vertex -0.497307 0.495030 0.022972
  endloop
 endfacet
 facet normal 0.000000 -1.000000 0.000000
  outer loop
   vertex -0.497307 -0.495030 0.013446
   vertex -0.165769 -0.495030 0.022972
   vertex -0.497307 -0.495030 0.022972
  endloop
 endfacet
 facet normal 0.000000 -1.000000 0.000000
  outer loop
   vertex -0.165769 -0.495030 0.022972
   vertex -0.497307 -0.495030 0.013446
   vertex -0.165769 -0.495030 0.013446
  endloop
 endfacet
 facet normal 0.000000 1.000000 0.000000
  outer loop
   vertex -0.165769 0.495030 0.013446
   vertex -0.497307 0.495030 0.022972
   vertex -0.165769 0.495030 0.022972
  endloop
 endfacet
 facet normal 0.000000 1.000000 0.000000
  outer loop
   vertex -0.497307 0.495030 0.022972
   vertex -0.165769 0.495030 0.013446
   vertex -0.497307 0.495030 0.013446
  endloop
 endfacet
 facet normal 0.000000 -1.000000 0.000000
  outer loop
   vertex -0.497307 -0.495030 0.003920
   vertex -0.165769 -0.495030 0.013446
   vertex -0.497307 -0.495030 0.013446
  endloop
 endfacet
 facet normal 0.000000 -1.000000 0.000000
  outer loop
   vertex -0.165769 -0.495030 0.013446
   vertex -0.497307 -0.495030 0.003920
   vertex -0.165769 -0.495030 0.003920
  endloop
 endfacet
 facet normal 0.000000 1.000000 0.000000
  outer loop
   vertex -0.165769 0.495030 0.003920
   vertex -0.497307 0.495030 0.013446
   vertex -0.165769 0.495030 0.013446
  endloop
 endfacet
 facet normal 0.000000 1.000000 0.000000
  outer loop
   vertex -0.497307 0.495030 0.013446
   vertex -0.165769 0.495030 0.003920
   vertex -0.497307 0.495030 0.003920
  endloop
 endfacet
 facet normal 1.000000 0.000000 0.000000
  outer loop
   vertex 0.497307 0.165010 0.032498
   vertex 0.497307 0.495030 0.022972
   vertex 0.497307 0.495030 0.032498
  endloop
 endfacet
 facet normal 1.000000 0.000000 0.000000
  outer loop
   vertex 0.497307 0.495030 0.022972
   vertex 0.497307 0.165010 0.032498
   vertex 0.497307 0.165010 0.022972
  endloop
 endfacet
 facet normal -1.000000 0.000000 0.000000
  outer loop
   vertex -0.497307 0.165010 0.022972
   vertex -0.497307 0.495030 0.032498
   vertex -0.497307 0.495030 0.022972
  endloop
 endfacet
 facet normal -1.000000 0.000000 0.000000
  outer loop
   vertex -0.497307 0.495030 0.032498
   vertex -0.497307 0.165010 0.022972
   vertex -0.497307 0.165010 0.032498
  endloop
 endfacet
 facet normal 1.000000 0.000000 0.000000
  outer loop
   vertex 0.497307 0.165010 0.022972
   vertex 0.497307 0.495030 0.013446
   vertex 0.497307 0.495030 0.022972
  endloop
 endfacet
 facet normal 1.000000 0.000000 0.000000
  outer loop
   vertex 0.497307 0.495030 0.013446
   vertex 0.497307 0.165010 0.022972
   vertex 0.497307 0.165010 0.013446
  endloop
 endfacet
 facet normal -1.000000 0.000000 0.000000
  outer loop
   vertex -0.497307 0.165010 0.013446
   vertex -0.497307 0.495030 0.022972
   vertex -0.497307 0.495030 0.013446
  endloop
 endfacet
 facet normal -1.000000 0.000000 0.000000
  outer loop
   vertex -0.497307 0.495030 0.022972
   vertex -0.497307 0.165010 0.013446
   vertex -0.497307 0.165010 0.022972
  endloop
 endfacet
 facet normal 1.000000 0.000000 0.000000
  outer loop
   vertex 0.497307 0.165010 0.013446
   vertex 0.497307 0.495030 0.003920
   vertex 0.497307 0.495030 0.013446
  endloop
 endfacet
 facet normal 1.000000 0.000000 0.000000
  outer loop
   vertex 0.497307 0.495030 0.003920
   vertex 0.497307 0.165010 0.013446
   vertex 0.497307 0.165010 0.003920
  endloop
 endfacet
 facet normal -1.000000 0.000000 0.000000
  outer loop
   vertex -0.497307 0.165010 0.003920
   vertex -0.497307 0.495030 0.013446
   vertex -0.497307 0.495030 0.003920
  endloop
 endfacet
 facet normal -1.000000 0.000000 0.000000
  outer loop
   vertex -0.497307 0.495030 0.013446
   vertex -0.497307 0.165010 0.003920
   vertex -0.497307 0.165010 0.013446
  endloop
 endfacet
 facet normal 1.000000 0.000000 0.000000
  outer loop
   vertex 0.497307 -0.165010 0.032498
   vertex 0.497307 0.165010 0.022972
   vertex 0.497307 0.165010 0.032498
  endloop
 endfacet
 facet normal 1.000000 0.000000 0.000000
  outer loop
   vertex 0.497307 0.165010 0.022972
   vertex 0.497307 -0.165010 0.032498
   vertex 0.497307 -0.165010 0.022972
  endloop
 endfacet
 facet normal -1.000000 0.000000 0.000000
  outer loop
   vertex -0.497307 -0.165010 0.022972
   vertex -0.497307 0.165010 0.032498
   vertex -0.497307 0.165010 0.022972
  endloop
 endfacet
 facet normal -1.000000 0.000000 0.000000
  outer loop
   vertex -0.497307 0.165010 0.032498
   vertex -0.497307 -0.165010 0.022972
   vertex -0.497307 -0.165010 0.032498
  endloop
 endfacet
 facet normal 1.000000 0.000000 0.000000
  outer loop
   vertex 0.497307 -0.165010 0.022972
   vertex 0.497307 0.165010 0.013446
   vertex 0.497307 0.165010 0.022972
  endloop
 endfacet
 facet normal 1.000000 0.000000 0.000000
  outer loop
   vertex 0.497307 0.165010 0.013446
   vertex 0.497307 -0.165010 0.022972
   vertex 0.497307 -0.165010 0.013446
  endloop
 endfacet
 facet normal -1.000000 0.000000 0.000000
  outer loop
   vertex -0.497307 -0.165010 0.013446
   vertex -0.497307 0.165010 0.022972
   vertex -0.497307 0.165010 0.013446
  endloop
 endfacet
 facet normal -1.000000 0.000000 0.000000
  outer loop
   vertex -0.497307 0.165010 0.022972
   vertex -0.497307 -0.165010 0.013446
   vertex -0.497307 -0.165010 0.022972
  endloop
 endfacet
 facet normal 1.000000 0.000000 0.000000
  outer loop
   vertex 0.497307 -0.165010 0.013446
   vertex 0.497307 0.165010 0.003920
   vertex 0.497307 0.165010 0.013446
  endloop
 endfacet
 facet normal 1.000000 0.000000 0.000000
  outer loop
   vertex 0.497307 0.165010 0.003920
   vertex 0.497307 -0.165010 0.013446
   vertex 0.497307 -0.165010 0.003920
  endloop
 endfacet
 facet normal -1.000000 0.000000 0.000000
  outer loop
   vertex -0.497307 -0.165010 0.003920
   vertex -0.497307 0.165010 0.013446
   vertex -0.497307 0.165010 0.003920
  endloop
 endfacet
 facet normal -1.000000 0.000000 0.000000
  outer loop
   vertex -0.497307 0.165010 0.013446
   vertex -0.497307 -0.165010 0.003920
   vertex -0.497307 -0.165010 0.013446
  endloop
 endfacet
 facet normal 1.000000 0.000000 0.000000
  outer loop
   vertex 0.497307 -0.495030 0.032498
   vertex 0.497307 -0.165010 0.022972
   vertex 0.497307 -0.165010 0.032498
  endloop
 endfacet
 facet normal 1.000000 0.000000 0.000000
  outer loop
   vertex 0.497307 -0.165010 0.022972
   vertex 0.497307 -0.495030 0.032498
   vertex 0.497307 -0.495030 0.022972
  endloop
 endfacet
 facet normal -1.000000 0.000000 0.000000
  outer loop
   vertex -0.497307 -0.495030 0.022972
   vertex -0.497307 -0.165010 0.032498
   vertex -0.497307 -0.165010 0.022972
  endloop
 endfacet
 facet normal -1.000000 0.000000 0.000000
  outer loop
   vertex -0.497307 -0.165010 0.032498
   vertex -0.497307 -0.495030 0.022972
   vertex -0.497307 -0.495030 0.032498
  endloop
 endfacet
 facet normal 1.000000 0.000000 0.000000
  outer loop
   vertex 0.497307 -0.495030 0.022972
   vertex 0.497307 -0.165010 0.013446
   vertex 0.497307 -0.165010 0.022972
  endloop
 endfacet
 facet normal 1.000000 0.000000 0.000000
  outer loop
   vertex 0.497307 -0.165010 0.013446
   vertex 0.497307 -0.495030 0.022972
   vertex 0.497307 -0.495030 0.013446
  endloop
 endfacet
 facet normal -1.000000 0.000000 0.000000
  outer loop
   vertex -0.497307 -0.495030 0.013446
   vertex -0.497307 -0.165010 0.022972
   vertex -0.497307 -0.165010 0.013446
  endloop
 endfacet
 facet normal -1.000000 0.000000 0.000000
  outer loop
   vertex -0.497307 -0.165010 0.022972
   vertex -0.497307 -0.495030 0.013446
   vertex -0.497307 -0.495030 0.022972
  endloop
 endfacet
 facet normal 1.000000 0.000000 0.000000
  outer loop
   vertex 0.497307 -0.495030 0.013446
   vertex 0.497307 -0.165010 0.003920
   vertex 0.497307 -0.165010 0.013446
  endloop
 endfacet
 facet normal 1.000000 0.000000 0.000000
  outer loop
   vertex 0.497307 -0.165010 0.003920
   vertex 0.497307 -0.495030 0.013446
   vertex 0.497307 -0.495030 0.003920
  endloop
 endfacet
 facet normal -1.000000 0.000000 0.000000
  outer loop
   vertex -0.497307 -0.495030 0.003920
   vertex -0.497307 -0.165010 0.013446
   vertex -0.497307 -0.165010 0.003920
  endloop
 endfacet
 facet normal -1.000000 0.000000 0.000000
  outer loop
   vertex -0.497307 -0.165010 0.013446
   vertex -0.497307 -0.495030 0.003920
   vertex -0.497307 -0.495030 0.013446
  endloop
 endfacet
 facet normal 0.000000 0.000000 1.000000
  outer loop
   vertex 0.165769 0.495030 0.032498
   vertex 0.497307 0.165010 0.032498
   vertex 0.497307 0.495030 0.032498
  endloop
 endfacet
 facet normal 0.000000 0.000000 1.000000
  outer loop
   vertex 0.497307 0.165010 0.032498
   vertex 0.165769 0.495030 0.032498
   vertex 0.165769 0.165010 0.032498
  endloop
 endfacet
 facet normal 0.000000 0.000000 -1.000000
  outer loop
   vertex 0.165769 0.165010 0.003920
   vertex 0.497307 0.495030 0.003920
   vertex 0.497307 0.165010 0.003920
  endloop
 endfacet
 facet normal 0.000000 0.000000 -1.000000
  outer loop
   vertex 0.497307 0.495030 0.003920
   vertex 0.165769 0.165010 0.003920
   vertex 0.165769 0.495030 0.003920
  endloop
 endfacet
 facet normal 0.000000 0.000000 1.000000
  outer loop
   vertex 0.165769 0.165010 0.032498
   vertex 0.497307 -0.165010 0.032498
   vertex 0.497307 0.165010 0.032498
  endloop
 endfacet
 facet normal 0.000000 0.000000 1.000000
  outer loop
   vertex 0.497307 -0.165010 0.032498
   vertex 0.165769 0.165010 0.032498
   vertex 0.165769 -0.165010 0.032498
  endloop
 endfacet
 facet normal 0.000000 0.000000 -1.000000
  outer loop
   vertex 0.165769 -0.165010 0.003920
   vertex 0.497307 0.165010 0.003920
   vertex 0.497307 -0.165010 0.003920
  endloop
 endfacet
 facet normal 0.000000 0.000000 -1.000000
  outer loop
   vertex 0.497307 0.165010 0.003920
   vertex 0.165769 -0.165010 0.003920
   vertex 0.165769 0.165010 0.003920
  endloop
 endfacet
 facet normal 0.000000 0.000000 1.000000
  outer loop
   vertex 0.165769 -0.165010 0.032498
   vertex 0.497307 -0.495030 0.032498
   vertex 0.497307 -0.165010 0.032498
  endloop
 endfacet
 facet normal 0.000000 0.000000 1.000000
  outer loop
   vertex 0.497307 -0.495030 0.032498
   vertex 0.165769 -0.165010 0.032498
   vertex 0.165769 -0.495030 0.032498
  endloop
 endfacet
 facet normal 0.000000 0.000000 -1.000000
  outer loop
   vertex 0.165769 -0.495030 0.003920
   vertex 0.497307 -0.165010 0.003920
   vertex 0.497307 -0.495030 0.003920
  endloop
 endfacet
 facet normal 0.000000 0.000000 -1.000000
  outer loop
   vertex 0.497307 -0.165010 0.003920
   vertex 0.165769 -0.495030 0.003920
   vertex 0.165769 -0.165010 0.003920
  endloop
 endfacet
 facet normal 0.000000 0.000000 1.000000
  outer loop
   vertex -0.165769 0.495030 0.032498
   vertex 0.165769 0.165010 0.032498
   vertex 0.165769 0.495030 0.032498
  endloop
 endfacet
 facet normal 0.000000 0.000000 1.000000
  outer loop
   vertex 0.165769 0.165010 0.032498
   vertex -0.165769 0.495030 0.032498
   vertex -0.165769 0.165010 0.032498
  endloop
 endfacet
 facet normal 0.000000 0.000000 -1.000000
  outer loop
   vertex -0.165769 0.165010 0.003920
   vertex 0.165769 0.495030 0.003920
   vertex 0.165769 0.165010 0.003920
  endloop
 endfacet
 facet normal 0.000000 0.000000 -1.000000
  outer loop
   vertex 0.165769 0.495030 0.003920
   vertex -0.165769 0.165010 0.003920
   vertex -0.165769 0.495030 0.003920
  endloop
 endfacet
 facet normal 0.000000 0.000000 1.000000
  outer loop
   vertex -0.165769 0.165010 0.032498
   vertex 0.165769 -0.165010 0.032498
   vertex 0.165769 0.165010 0.032498
  endloop
 endfacet
 facet normal 0.000000 0.000000 1.000000
  outer loop
   vertex 0.165769 -0.165010 0.032498
   vertex -0.165769 0.165010 0.032498
   vertex -0.165769 -0.165010 0.032498
  endloop
 endfacet
 facet normal 0.000000 0.000000 -1.000000
  outer loop
   vertex -0.165769 -0.165010 0.003920
   vertex 0.165769 0.165010 0.003920
   vertex 0.165769 -0.165010 0.003920
  endloop
 endfacet
 facet normal 0.000000 0.000000 -1.000000
  outer loop
   vertex 0.165769 0.165010 0.003920
   vertex -0.165769 -0.165010 0.003920
   vertex -0.165769 0.165010 0.003920
  endloop
 endfacet
 facet normal 0.000000 0.000000 1.000000
  outer loop
   vertex -0.165769 -0.165010 0.032498
   vertex 0.165769 -0.495030 0.032498
   vertex 0.165769 -0.165010 0.032498
  endloop
 endfacet
 facet normal 0.000000 0.000000 1.000000
  outer loop
   vertex 0.165769 -0.495030 0.032498
   vertex -0.165769 -0.165010 0.032498
   vertex -0.165769 -0.495030 0.032498
  endloop
 endfacet
 facet normal 0.000000 0.000000 -1.000000
  outer loop
   vertex -0.165769 -0.495030 0.003920
   vertex 0.165769 -0.165010 0.003920
   vertex 0.165769 -0.495030 0.003920
  endloop
 endfacet
 facet normal 0.000000 0.000000 -1.000000
  outer loop
   vertex 0.165769 -0.165010 0.003920
   vertex -0.165769 -0.495030 0.003920
   vertex -0.165769 -0.165010 0.003920
  endloop
 endfacet
 facet normal 0.000000 0.000000 1.000000
  outer loop
   vertex -0.497307 0.495030 0.032498
   vertex -0.165769 0.165010 0.032498
   vertex -0.165769 0.495030 0.032498
  endloop
 endfacet
 facet normal 0.000000 0.000000 1.000000
  outer loop
   vertex -0.165769 0.165010 0.032498
   vertex -0.497307 0.495030 0.032498
   vertex -0.497307 0.165010 0.032498
  endloop
 endfacet
 facet normal 0.000000 0.000000 -1.000000
  outer loop
   vertex -0.497307 0.165010 0.003920
   vertex -0.165769 0.495030 0.003920
   vertex -0.165769 0.165010 0.003920
  endloop
 endfacet
 facet normal 0.000000 0.000000 -1.000000
  outer loop
   vertex -0.165769 0.495030 0.003920
   vertex -0.497307 0.165010 0.003920
   vertex -0.497307 0.495030 0.003920
  endloop
 endfacet
 facet normal 0.000000 0.000000 1.000000
  outer loop
   vertex -0.497307 0.165010 0.032498
   vertex -0.165769 -0.165010 0.032498
   vertex -0.165769 0.165010 0.032498
  endloop
 endfacet
 facet normal 0.000000 0.000000 1.000000
  outer loop
   vertex -0.165769 -0.165010 0.032498
   vertex -0.497307 0.165010 0.032498
   vertex -0.497307 -0.165010 0.032498
  endloop
 endfacet
 facet normal 0.000000 0.000000 -1.000000
  outer loop
   vertex -0.497307 -0.165010 0.003920
   vertex -0.165769 0.165010 0.003920
   vertex -0.165769 -0.165010 0.003920
  endloop
 endfacet
 facet normal 0.000000 0.000000 -1.000000
  outer loop
   vertex -0.165769 0.165010 0.003920
   vertex -0.497307 -0.165010 0.003920
   vertex -0.497307 0.165010 0.003920
  endloop
 endfacet
 facet normal 0.000000 0.000000 1.000000
  outer loop
   vertex -0.497307 -0.165010 0.032498
   vertex -0.165769 -0.495030 0.032498
   vertex -0.165769 -0.165010 0.032498
  endloop
 endfacet
 facet normal 0.000000 0.000000 1.000000
  outer loop
   vertex -0.165769 -0.495030 0.032498
   vertex -0.497307 -0.165010 0.032498
   vertex -0.497307 -0.495030 0.032498
  endloop
 endfacet
 facet normal 0.000000 0.000000 -1.000000
  outer loop
   vertex -0.497307 -0.495030 0.003920
   vertex -0.165769 -0.165010 0.003920
   vertex -0.165769 -0.495030 0.003920
  endloop
 endfacet
 facet normal 0.000000 0.000000 -1.000000
  outer loop
   vertex -0.165769 -0.165010 0.003920
   vertex -0.497307 -0.495030 0.003920
   vertex -0.497307 -0.165010 0.003920
  endloop
 endfacet
 facet normal 0.000000 0.000000 1.000000
  outer loop
   vertex -0.000713 0.001930 0.796081
   vertex 0.157792 0.001929 0.796081
   vertex 0.154329 0.035200 0.796081
  endloop
 endfacet
 facet normal 0.000000 0.000000 1.000000
  outer loop
   vertex -0.000713 0.001930 0.796081
   vertex 0.154329 -0.031341 0.796081
   vertex 0.157792 0.001929 0.796081
  endloop
 endfacet
 facet normal 0.000000 0.000000 1.000000
  outer loop
   vertex -0.000713 0.001930 0.796081
   vertex 0.144089 -0.063158 0.796081
   vertex 0.154329 -0.031341 0.796081
  endloop
 endfacet
 facet normal 0.000000 0.000000 1.000000
  outer loop
   vertex -0.000713 0.001930 0.796081
   vertex 0.127520 -0.092130 0.796081
   vertex 0.144089 -0.063158 0.796081
  endloop
 endfacet
 facet normal 0.000000 0.000000 1.000000
  outer loop
   vertex -0.000713 0.001930 0.796081
   vertex 0.105348 -0.116990 0.796081
   vertex 0.127520 -0.092130 0.796081
  endloop
 endfacet
 facet normal 0.000000 0.000000 1.000000
  outer loop
   vertex -0.000713 0.001930 0.796081
   vertex 0.078540 -0.136654 0.796081
   vertex 0.105348 -0.116990 0.796081
  endloop
 endfacet
 facet normal 0.000000 0.000000 1.000000
  outer loop
   vertex -0.000713 0.001930 0.796081
   vertex 0.048268 -0.150261 0.796081
   vertex 0.078540 -0.136654 0.796081
  endloop
 endfacet
 facet normal 0.000000 0.000000 1.000000
  outer loop
   vertex -0.000713 0.001930 0.796081
   vertex 0.015855 -0.157217 0.796081
   vertex 0.048268 -0.150261 0.796081
  endloop
 endfacet
 facet normal 0.000000 0.000000 1.000000
  outer loop
   vertex -0.000713 0.001930 0.796081
   vertex -0.017281 -0.157217 0.796081
   vertex 0.015855 -0.157217 0.796081
  endloop
 endfacet
 facet normal 0.000000 0.000000 1.000000
  outer loop
   vertex -0.000713 0.001930 0.796081
   vertex -0.049694 -0.150261 0.796081
   vertex -0.017281 -0.157217 0.796081
  endloop
 endfacet
 facet normal 0.000000 0.000000 1.000000
  outer loop
   vertex -0.000713 0.001930 0.796081
   vertex -0.079966 -0.136654 0.796081
   vertex -0.049694 -0.150261 0.796081
  endloop
 endfacet
 facet normal 0.000000 0.000000 1.000000
  outer loop
   vertex -0.000713 0.001930 0.796081
   vertex -0.106774 -0.116990 0.796081
   vertex -0.079966 -0.136654 0.796081
  endloop
 endfacet
 facet normal 0.000000 0.000000 1.000000
  outer loop
   vertex -0.000713 0.001930 0.796081
   vertex -0.128946 -0.092130 0.796081
   vertex -0.106774 -0.116990 0.796081
  endloop
 endfacet
 facet normal 0.000000 0.000000 1.000000
  outer loop
   vertex -0.000713 0.001930 0.796081
   vertex -0.145515 -0.063158 0.796081
   vertex -0.128946 -0.092130 0.796081
  endloop
 endfacet
 facet normal 0.000000 0.000000 1.000000
  outer loop
   vertex -0.000713 0.001930 0.796081
   vertex -0.155755 -0.031341 0.796081
   vertex -0.145515 -0.063158 0.796081
  endloop
 endfacet
 facet normal 0.000000 0.000000 1.000000
  outer loop
   vertex -0.000713 0.001930 0.796081
   vertex -0.159218 0.001930 0.796081
   vertex -0.155755 -0.031341 0.796081
  endloop
 endfacet
 facet normal 0.000000 0.000000 1.000000
  outer loop
   vertex -0.000713 0.001930 0.796081
   vertex -0.155755 0.035200 0.796081
   vertex -0.159218 0.001930 0.796081
  endloop
 endfacet
 facet normal 0.000000 0.000000 1.000000
  outer loop
   vertex -0.000713 0.001930 0.796081
   vertex -0.145515 0.067017 0.796081
   vertex -0.155755 0.035200 0.796081
  endloop
 endfacet
 facet normal 0.000000 0.000000 1.000000
  outer loop
   vertex -0.000713 0.001930 0.796081
   vertex -0.128946 0.095989 0.796081
   vertex -0.145515 0.067017 0.796081
  endloop
 endfacet
 facet normal 0.000000 0.000000 1.000000
  outer loop
   vertex -0.000713 0.001930 0.796081
   vertex -0.106774 0.120850 0.796081
   vertex -0.128946 0.095989 0.796081
  endloop
 endfacet
 facet normal 0.000000 0.000000 1.000000
  outer loop
   vertex -0.000713 0.001930 0.796081
   vertex -0.079966 0.140514 0.796081
   vertex -0.106774 0.120850 0.796081
  endloop
 endfacet
 facet normal 0.000000 0.000000 1.000000
  outer loop
   vertex -0.000713 0.001930 0.796081
   vertex -0.049694 0.154121 0.796081
   vertex -0.079966 0.140514 0.796081
  endloop
 endfacet
 facet normal 0.000000 0.000000 1.000000
  outer loop
   vertex -0.000713 0.001930 0.796081
   vertex -0.017281 0.161077 0.796081
   vertex -0.049694 0.154121 0.796081
  endloop
 endfacet
 facet normal 0.000000 0.000000 1.000000
  outer loop
   vertex -0.000713 0.001930 0.796081
   vertex 0.015855 0.161077 0.796081
   vertex -0.017281 0.161077 0.796081
  endloop
 endfacet
 facet normal 0.000000 0.000000 1.000000
  outer loop
   vertex -0.000713 0.001930 0.796081
   vertex 0.048268 0.154121 0.796081
   vertex 0.015855 0.161077 0.796081
  endloop
 endfacet
 facet normal 0.000000 0.000000 1.000000
  outer loop
   vertex -0.000713 0.001930 0.796081
   vertex 0.078540 0.140514 0.796081
   vertex 0.048268 0.154121 0.796081
  endloop
 endfacet
 facet normal 0.000000 0.000000 1.000000
  outer loop
   vertex -0.000713 0.001930 0.796081
   vertex 0.105348 0.120850 0.796081
   vertex 0.078540 0.140514 0.796081
  endloop
 endfacet
 facet normal 0.000000 0.000000 1.000000
  outer loop
   vertex -0.000713 0.001930 0.796081
   vertex 0.127520 0.095989 0.796081
   vertex 0.105348 0.120850 0.796081
  endloop
 endfacet
 facet normal 0.000000 0.000000 1.000000
  outer loop
   vertex -0.000713 0.001930 0.796081
   vertex 0.144089 0.067017 0.796081
   vertex 0.127520 0.095989 0.796081
  endloop
 endfacet
 facet normal 0.000000 0.000000 1.000000
  outer loop
   vertex -0.000713 0.001930 0.796081
   vertex 0.154329 0.035200 0.796081
   vertex 0.144089 0.067017 0.796081
  endloop
 endfacet
 facet normal 0.000000 0.000000 -1.000000
  outer loop
   vertex -0.000713 0.001930 0.032795
   vertex 0.154329 0.035200 0.032795
   vertex 0.157792 0.001929 0.032795
  endloop
 endfacet
 facet normal 0.000000 0.000000 -1.000000
  outer loop
   vertex -0.000713 0.001930 0.032795
   vertex 0.157792 0.001929 0.032795
   vertex 0.154329 -0.031341 0.032795
  endloop
 endfacet
 facet normal 0.000000 0.000000 -1.000000
  outer loop
   vertex -0.000713 0.001930 0.032795
   vertex 0.154329 -0.031341 0.032795
   vertex 0.144089 -0.063158 0.032795
  endloop
 endfacet
 facet normal 0.000000 0.000000 -1.000000
  outer loop
   vertex -0.000713 0.001930 0.032795
   vertex 0.144089 -0.063158 0.032795
   vertex 0.127520 -0.092130 0.032795
  endloop
 endfacet
 facet normal 0.000000 0.000000 -1.000000
  outer loop
   vertex -0.000713 0.001930 0.032795
   vertex 0.127520 -0.092130 0.032795
   vertex 0.105348 -0.116990 0.032795
  endloop
 endfacet
 facet normal 0.000000 0.000000 -1.000000
  outer loop
   vertex -0.000713 0.001930 0.032795
   vertex 0.105348 -0.116990 0.032795
   vertex 0.078540 -0.136654 0.032795
  endloop
 endfacet
 facet normal 0.000000 0.000000 -1.000000
  outer loop
   vertex -0.000713 0.001930 0.032795
   vertex 0.078540 -0.136654 0.032795
   vertex 0.048268 -0.150261 0.032795
  endloop
 endfacet
 facet normal 0.000000 0.000000 -1.000000
  outer loop
   vertex -0.000713 0.001930 0.032795
   vertex 0.048268 -0.150261 0.032795
   vertex 0.015855 -0.157217 0.032795
  endloop
 endfacet
 facet normal 0.000000 0.000000 -1.000000
  outer loop
   vertex -0.000713 0.001930 0.032795
   vertex 0.015855 -0.157217 0.032795
   vertex -0.017281 -0.157217 0.032795
  endloop
 endfacet
 facet normal 0.000000 0.000000 -1.000000
  outer loop
   vertex -0.000713 0.001930 0.032795
   vertex -0.017281 -0.157217 0.032795
   vertex -0.049694 -0.150261 0.032795
  endloop
 endfacet
 facet normal 0.000000 0.000000 -1.000000
  outer loop
   vertex -0.000713 0.001930 0.032795
   vertex -0.049694 -0.150261 0.032795
   vertex -0.079966 -0.136654 0.032795
  endloop
 endfacet
 facet normal 0.000000 0.000000 -1.000000
  outer loop
   vertex -0.000713 0.001930 0.032795
   vertex -0.079966 -0.136654 0.032795
   vertex -0.106774 -0.116990 0.032795
  endloop
 endfacet
 facet normal 0.000000 0.000000 -1.000000
  outer loop
   vertex -0.000713 0.001930 0.032795
   vertex -0.106774 -0.116990 0.032795
   vertex -0.128946 -0.092130 0.032795
  endloop
 endfacet
 facet normal 0.000000 0.000000 -1.000000
  outer loop
   vertex -0.000713 0.001930 0.032795
   vertex -0.128946 -0.092130 0.032795
   vertex -0.145515 -0.063158 0.032795
  endloop
 endfacet
 facet normal 0.000000 0.000000 -1.000000
  outer loop
   vertex -0.000713 0.001930 0.032795
   vertex -0.145515 -0.063158 0.032795
   vertex -0.155755 -0.031341 0.032795
  endloop
 endfacet
 facet normal 0.000000 0.000000 -1.000000
  outer loop
   vertex -0.000713 0.001930 0.032795
   vertex -0.155755 -0.031341 0.032795
   vertex -0.159218 0.001930 0.032795
  endloop
 endfacet
 facet normal 0.000000 0.000000 -1.000000
  outer loop
   vertex -0.000713 0.001930 0.032795
   vertex -0.159218 0.001930 0.032795
   vertex -0.155755 0.035200 0.032795
  endloop
 endfacet
 facet normal 0.000000 0.000000 -1.000000
  outer loop
   vertex -0.000713 0.001930 0.032795
   vertex -0.155755 0.035200 0.032795
   vertex -0.145515 0.067017 0.032795
  endloop
 endfacet
 facet normal 0.000000 0.000000 -1.000000
  outer loop
   vertex -0.000713 0.001930 0.032795
   vertex -0.145515 0.067017 0.032795
   vertex -0.128946 0.095989 0.032795
  endloop
 endfacet
 facet normal 0.000000 0.000000 -1.000000
  outer loop
   vertex -0.000713 0.001930 0.032795
   vertex -0.128946 0.095989 0.032795
   vertex -0.106774 0.120850 0.032795
  endloop
 endfacet
 facet normal 0.000000 0.000000 -1.000000
  outer loop
   vertex -0.000713 0.001930 0.032795
   vertex -0.106774 0.120850 0.032795
   vertex -0.079966 0.140514 0.032795
  endloop
 endfacet
 facet normal 0.000000 0.000000 -1.000000
  outer loop
   vertex -0.000713 0.001930 0.032795
   vertex -0.079966 0.140514 0.032795
   vertex -0.049694 0.154121 0.032795
  endloop
 endfacet
 facet normal 0.000000 0.000000 -1.000000
  outer loop
   vertex -0.000713 0.001930 0.032795
   vertex -0.049694 0.154121 0.032795
   vertex -0.017281 0.161077 0.032795
  endloop
 endfacet
 facet normal 0.000000 0.000000 -1.000000
  outer loop
   vertex -0.000713 0.001930 0.032795
   vertex -0.017281 0.161077 0.032795
   vertex 0.015855 0.161077 0.032795
  endloop
 endfacet
 facet normal 0.000000 0.000000 -1.000000
  outer loop
   vertex -0.000713 0.001930 0.032795
   vertex 0.015855 0.161077 0.032795
   vertex 0.048268 0.154121 0.032795
  endloop
 endfacet
 facet normal 0.000000 0.000000 -1.000000
  outer loop
   vertex -0.000713 0.001930 0.032795
   vertex 0.048268 0.154121 0.032795
   vertex 0.078540 0.140514 0.032795
  endloop
 endfacet
 facet normal 0.000000 0.000000 -1.000000
  outer loop
   vertex -0.000713 0.001930 0.032795
   vertex 0.078540 0.140514 0.032795
   vertex 0.105348 0.120850 0.032795
  endloop
 endfacet
 facet normal 0.000000 0.000000 -1.000000
  outer loop
   vertex -0.000713 0.001930 0.032795
   vertex 0.105348 0.120850 0.032795
   vertex 0.127520 0.095989 0.032795
  endloop
 endfacet
 facet normal 0.000000 0.000000 -1.000000
  outer loop
   vertex -0.000713 0.001930 0.032795
   vertex 0.127520 0.095989 0.032795
   vertex 0.144089 0.067017 0.032795
  endloop
 endfacet
 facet normal 0.000000 0.000000 -1.000000
  outer loop
   vertex -0.000713 0.001930 0.032795
   vertex 0.144089 0.067017 0.032795
   vertex 0.154329 0.035200 0.032795
  endloop
 endfacet
 facet normal 0.994627 0.103525 0.000000
  outer loop
   vertex 0.157792 0.001929 0.796081
   vertex 0.154329 0.035200 0.032795
   vertex 0.154329 0.035200 0.796081
  endloop
 endfacet
 facet normal 0.994627 0.103525 0.000000
  outer loop
   vertex 0.154329 0.035200 0.032795
   vertex 0.157792 0.001929 0.796081
   vertex 0.157792 0.001929 0.032795
  endloop
 endfacet
 facet normal 0.994627 -0.103526 0.000000
  outer loop
   vertex 0.154329 -0.031341 0.796081
   vertex 0.157792 0.001929 0.032795
   vertex 0.157792 0.001929 0.796081
  endloop
 endfacet
 facet normal 0.994627 -0.103526 0.000000
  outer loop
   vertex 0.157792 0.001929 0.032795
   vertex 0.154329 -0.031341 0.796081
   vertex 0.154329 -0.031341 0.032795
  endloop
 endfacet
 facet normal 0.951913 -0.306369 0.000000
  outer loop
   vertex 0.144089 -0.063158 0.796081
   vertex 0.154329 -0.031341 0.032795
   vertex 0.154329 -0.031341 0.796081
  endloop
 endfacet
 facet normal 0.951913 -0.306369 0.000000
  outer loop
   vertex 0.154329 -0.031341 0.032795
   vertex 0.144089 -0.063158 0.796081
   vertex 0.144089 -0.063158 0.032795
  endloop
 endfacet
 facet normal 0.868067 -0.496447 0.000000
  outer loop
   vertex 0.127520 -0.092130 0.796081
   vertex 0.144089 -0.063158 0.032795
   vertex 0.144089 -0.063158 0.796081
  endloop
 endfacet
 facet normal 0.868067 -0.496447 0.000000
  outer loop
   vertex 0.144089 -0.063158 0.032795
   vertex 0.127520 -0.092130 0.796081
   vertex 0.127520 -0.092130 0.032795
  endloop
 endfacet
 facet normal 0.746310 -0.665599 0.000000
  outer loop
   vertex 0.105348 -0.116990 0.796081
   vertex 0.127520 -0.092130 0.032795
   vertex 0.127520 -0.092130 0.796081
  endloop
 endfacet
 facet normal 0.746310 -0.665599 0.000000
  outer loop
   vertex 0.127520 -0.092130 0.032795
   vertex 0.105348 -0.116990 0.796081
   vertex 0.105348 -0.116990 0.032795
  endloop
 endfacet
 facet normal 0.591450 -0.806341 0.000000
  outer loop
   vertex 0.078540 -0.136654 0.032795
   vertex 0.105348 -0.116990 0.796081
   vertex 0.078540 -0.136654 0.796081
  endloop
 endfacet
 facet normal 0.591450 -0.806341 0.000000
  outer loop
   vertex 0.105348 -0.116990 0.796081
   vertex 0.078540 -0.136654 0.032795
   vertex 0.105348 -0.116990 0.032795
  endloop
 endfacet
 facet normal 0.409981 -0.912094 0.000000
  outer loop
   vertex 0.048268 -0.150261 0.032795
   vertex 0.078540 -0.136654 0.796081
   vertex 0.048268 -0.150261 0.796081
  endloop
 endfacet
 facet normal 0.409981 -0.912094 0.000000
  outer loop
   vertex 0.078540 -0.136654 0.796081
   vertex 0.048268 -0.150261 0.032795
   vertex 0.078540 -0.136654 0.032795
  endloop
 endfacet
 facet normal 0.209831 -0.977738 0.000000
  outer loop
   vertex 0.015855 -0.157217 0.032795
   vertex 0.048268 -0.150261 0.796081
   vertex 0.015855 -0.157217 0.796081
  endloop
 endfacet
 facet normal 0.209831 -0.977738 0.000000
  outer loop
   vertex 0.048268 -0.150261 0.796081
   vertex 0.015855 -0.157217 0.032795
   vertex 0.048268 -0.150261 0.032795
  endloop
 endfacet
 facet normal 0.000000 -1.000000 0.000000
  outer loop
   vertex -0.017281 -0.157217 0.032795
   vertex 0.015855 -0.157217 0.796081
   vertex -0.017281 -0.157217 0.796081
  endloop
 endfacet
 facet normal 0.000000 -1.000000 0.000000
  outer loop
   vertex 0.015855 -0.157217 0.796081
   vertex -0.017281 -0.157217 0.032795
   vertex 0.015855 -0.157217 0.032795
  endloop
 endfacet
 facet normal -0.209831 -0.977738 0.000000
  outer loop
   vertex -0.049694 -0.150261 0.032795
   vertex -0.017281 -0.157217 0.796081
   vertex -0.049694 -0.150261 0.796081
  endloop
 endfacet
 facet normal -0.209831 -0.977738 0.000000
  outer loop
   vertex -0.017281 -0.157217 0.796081
   vertex -0.049694 -0.150261 0.032795
   vertex -0.017281 -0.157217 0.032795
  endloop
 endfacet
 facet normal -0.409982 -0.912094 0.000000
  outer loop
   vertex -0.079966 -0.136654 0.032795
   vertex -0.049694 -0.150261 0.796081
   vertex -0.079966 -0.136654 0.796081
  endloop
 endfacet
 facet normal -0.409982 -0.912094 0.000000
  outer loop
   vertex -0.049694 -0.150261 0.796081
   vertex -0.079966 -0.136654 0.032795
   vertex -0.049694 -0.150261 0.032795
  endloop
 endfacet
 facet normal -0.591452 -0.806340 0.000000
  outer loop
   vertex -0.106774 -0.116990 0.032795
   vertex -0.079966 -0.136654 0.796081
   vertex -0.106774 -0.116990 0.796081
  endloop
 endfacet
 facet normal -0.591452 -0.806340 0.000000
  outer loop
   vertex -0.079966 -0.136654 0.796081
   vertex -0.106774 -0.116990 0.032795
   vertex -0.079966 -0.136654 0.032795
  endloop
 endfacet
 facet normal -0.746311 -0.665597 0.000000
  outer loop
   vertex -0.106774 -0.116990 0.032795
   vertex -0.128946 -0.092130 0.796081
   vertex -0.128946 -0.092130 0.032795
  endloop
 endfacet
 facet normal -0.746311 -0.665597 0.000000
  outer loop
   vertex -0.128946 -0.092130 0.796081
   vertex -0.106774 -0.116990 0.032795
   vertex -0.106774 -0.116990 0.796081
  endloop
 endfacet
 facet normal -0.868068 -0.496446 0.000000
  outer loop
   vertex -0.128946 -0.092130 0.032795
   vertex -0.145515 -0.063158 0.796081
   vertex -0.145515 -0.063158 0.032795
  endloop
 endfacet
 facet normal -0.868068 -0.496446 0.000000
  outer loop
   vertex -0.145515 -0.063158 0.796081
   vertex -0.128946 -0.092130 0.032795
   vertex -0.128946 -0.092130 0.796081
  endloop
 endfacet
 facet normal -0.951913 -0.306368 0.000000
  outer loop
   vertex -0.145515 -0.063158 0.032795
   vertex -0.155755 -0.031341 0.796081
   vertex -0.155755 -0.031341 0.032795
  endloop
 endfacet
 facet normal -0.951913 -0.306368 0.000000
  outer loop
   vertex -0.155755 -0.031341 0.796081
   vertex -0.145515 -0.063158 0.032795
   vertex -0.145515 -0.063158 0.796081
  endloop
 endfacet
 facet normal -0.994627 -0.103526 0.000000
  outer loop
   vertex -0.155755 -0.031341 0.032795
   vertex -0.159218 0.001930 0.796081
   vertex -0.159218 0.001930 0.032795
  endloop
 endfacet
 facet normal -0.994627 -0.103526 0.000000
  outer loop
   vertex -0.159218 0.001930 0.796081
   vertex -0.155755 -0.031341 0.032795
   vertex -0.155755 -0.031341 0.796081
  endloop
 endfacet
 facet normal -0.994627 0.103526 0.000000
  outer loop
   vertex -0.159218 0.001930 0.032795
   vertex -0.155755 0.035200 0.796081
   vertex -0.155755 0.035200 0.032795
  endloop
 endfacet
 facet normal -0.994627 0.103526 0.000000
  outer loop
   vertex -0.155755 0.035200 0.796081
   vertex -0.159218 0.001930 0.032795
   vertex -0.159218 0.001930 0.796081
  endloop
 endfacet
 facet normal -0.951913 0.306368 0.000000
  outer loop
   vertex -0.155755 0.035200 0.032795
   vertex -0.145515 0.067017 0.796081
   vertex -0.145515 0.067017 0.032795
  endloop
 endfacet
 facet normal -0.951913 0.306368 0.000000
  outer loop
   vertex -0.145515 0.067017 0.796081
   vertex -0.155755 0.035200 0.032795
   vertex -0.155755 0.035200 0.796081
  endloop
 endfacet
 facet normal -0.868068 0.496446 0.000000
  outer loop
   vertex -0.145515 0.067017 0.032795
   vertex -0.128946 0.095989 0.796081
   vertex -0.128946 0.095989 0.032795
  endloop
 endfacet
 facet normal -0.868068 0.496446 0.000000
  outer loop
   vertex -0.128946 0.095989 0.796081
   vertex -0.145515 0.067017 0.032795
   vertex -0.145515 0.067017 0.796081
  endloop
 endfacet
 facet normal -0.746311 0.665597 0.000000
  outer loop
   vertex -0.128946 0.095989 0.032795
   vertex -0.106774 0.120850 0.796081
   vertex -0.106774 0.120850 0.032795
  endloop
 endfacet
 facet normal -0.746311 0.665597 0.000000
  outer loop
   vertex -0.106774 0.120850 0.796081
   vertex -0.128946 0.095989 0.032795
   vertex -0.128946 0.095989 0.796081
  endloop
 endfacet
 facet normal -0.591453 0.806339 0.000000
  outer loop
   vertex -0.079966 0.140514 0.032795
   vertex -0.106774 0.120850 0.796081
   vertex -0.079966 0.140514 0.796081
  endloop
 endfacet
 facet normal -0.591453 0.806339 0.000000
  outer loop
   vertex -0.106774 0.120850 0.796081
   vertex -0.079966 0.140514 0.032795
   vertex -0.106774 0.120850 0.032795
  endloop
 endfacet
 facet normal -0.409980 0.912095 0.000000
  outer loop
   vertex -0.049694 0.154121 0.032795
   vertex -0.079966 0.140514 0.796081
   vertex -0.049694 0.154121 0.796081
  endloop
 endfacet
 facet normal -0.409980 0.912095 0.000000
  outer loop
   vertex -0.079966 0.140514 0.796081
   vertex -0.049694 0.154121 0.032795
   vertex -0.079966 0.140514 0.032795
  endloop
 endfacet
 facet normal -0.209831 0.977738 0.000000
  outer loop
   vertex -0.017281 0.161077 0.032795
   vertex -0.049694 0.154121 0.796081
   vertex -0.017281 0.161077 0.796081
  endloop
 endfacet
 facet normal -0.209831 0.977738 0.000000
  outer loop
   vertex -0.049694 0.154121 0.796081
   vertex -0.017281 0.161077 0.032795
   vertex -0.049694 0.154121 0.032795
  endloop
 endfacet
 facet normal 0.000000 1.000000 0.000000
  outer loop
   vertex 0.015855 0.161077 0.032795
   vertex -0.017281 0.161077 0.796081
   vertex 0.015855 0.161077 0.796081
  endloop
 endfacet
 facet normal 0.000000 1.000000 0.000000
  outer loop
   vertex -0.017281 0.161077 0.796081
   vertex 0.015855 0.161077 0.032795
   vertex -0.017281 0.161077 0.032795
  endloop
 endfacet
 facet normal 0.209831 0.977738 0.000000
  outer loop
   vertex 0.048268 0.154121 0.032795
   vertex 0.015855 0.161077 0.796081
   vertex 0.048268 0.154121 0.796081
  endloop
 endfacet
 facet normal 0.209831 0.977738 0.000000
  outer loop
   vertex 0.015855 0.161077 0.796081
   vertex 0.048268 0.154121 0.032795
   vertex 0.015855 0.161077 0.032795
  endloop
 endfacet
 facet normal 0.409982 0.912094 0.000000
  outer loop
   vertex 0.078540 0.140514 0.032795
   vertex 0.048268 0.154121 0.796081
   vertex 0.078540 0.140514 0.796081
  endloop
 endfacet
 facet normal 0.409982 0.912094 0.000000
  outer loop
   vertex 0.048268 0.154121 0.796081
   vertex 0.078540 0.140514 0.032795
   vertex 0.048268 0.154121 0.032795
  endloop
 endfacet
 facet normal 0.591450 0.806341 0.000000
  outer loop
   vertex 0.105348 0.120850 0.032795
   vertex 0.078540 0.140514 0.796081
   vertex 0.105348 0.120850 0.796081
  endloop
 endfacet
 facet normal 0.591450 0.806341 0.000000
  outer loop
   vertex 0.078540 0.140514 0.796081
   vertex 0.105348 0.120850 0.032795
   vertex 0.078540 0.140514 0.032795
  endloop
 endfacet
 facet normal 0.746311 0.665597 0.000000
  outer loop
   vertex 0.127520 0.095989 0.796081
   vertex 0.105348 0.120850 0.032795
   vertex 0.105348 0.120850 0.796081
  endloop
 endfacet
 facet normal 0.746311 0.665597 0.000000
  outer loop
   vertex 0.105348 0.120850 0.032795
   vertex 0.127520 0.095989 0.796081
   vertex 0.127520 0.095989 0.032795
  endloop
 endfacet
 facet normal 0.868068 0.496446 0.000000
  outer loop
   vertex 0.144089 0.067017 0.796081
   vertex 0.127520 0.095989 0.032795
   vertex 0.127520 0.095989 0.796081
  endloop
 endfacet
 facet normal 0.868068 0.496446 0.000000
  outer loop
   vertex 0.127520 0.095989 0.032795
   vertex 0.144089 0.067017 0.796081
   vertex 0.144089 0.067017 0.032795
  endloop
 endfacet
 facet normal 0.951913 0.306368 0.000000
  outer loop
   vertex 0.154329 0.035200 0.796081
   vertex 0.144089 0.067017 0.032795
   vertex 0.144089 0.067017 0.796081
  endloop
 endfacet
 facet normal 0.951913 0.306368 0.000000
  outer loop
   vertex 0.144089 0.067017 0.032795
   vertex 0.154329 0.035200 0.796081
   vertex 0.154329 0.035200 0.032795
  endloop
 endfacet
endsolid
